<svg preserveAspectRatio="none" width="100%" height="100%" overflow="visible" style="display: block;" viewBox="0 0 393 852" fill="none" xmlns="http://www.w3.org/2000/svg">
<g id="iPhone 16 - 2" clip-path="url(#clip0_0_4)">
<rect width="393" height="852" fill="#FCE9F5"/>
<path id="Ellipse 43" d="M421.022 292.072C413.696 306.97 372.93 303.794 330.2 282.78C287.469 261.766 258.955 230.872 266.281 215.975C273.607 201.077 314.186 206.035 356.917 227.049C399.647 248.062 428.348 277.174 421.022 292.072Z" fill="#5CA8D8"/>
<path id="Vector 138" d="M325.159 279.9C270.295 249.228 259.82 243.063 263.06 234.603C287.18 229.32 381.32 279.9 404.9 298.323C426.932 332.739 362 294.24 325.159 279.9Z" fill="#A1B71A" stroke="#A1B71A" strokeWidth="0.36"/>
<path id="Vector 139" d="M303.576 357.184C227.82 324.583 246.69 250.366 264.999 219.118C306.945 290.776 382.937 302.537 416.286 297.675C375.137 366.339 324.001 365.958 303.576 357.184Z" fill="#C7E5F8"/>
<ellipse id="Ellipse 44" cx="30.24" cy="36.18" rx="30.24" ry="36.18" transform="matrix(-1 0 0 1 257.48 222.098)" fill="#C7E5F8"/>
<path id="Ellipse 45" d="M210.787 258.03C210.787 263.488 214.189 283.755 229.255 280.062C238.291 280.062 248.533 265.432 248.533 259.974C248.533 254.516 243.997 237.909 229.255 236.646C207.501 234.782 210.787 252.572 210.787 258.03Z" fill="#FCE9F5"/>
</g>
<defs>
<clipPath id="clip0_0_4">
<rect width="393" height="852" fill="white"/>
</clipPath>
</defs>
</svg>
