<svg xmlns="http://www.w3.org/2000/svg" width="48" height="56" viewBox="0 0 48 56">

  <!-- ── Tail ── -->
  <path d="M10 37 Q2 46 6 56" stroke="rgba(0,0,0,0.10)" stroke-width="5.5" stroke-linecap="round" fill="none"/>
  <path d="M10 37 Q2 46 6 56" stroke="rgba(255,255,255,0.78)" stroke-width="4" stroke-linecap="round" fill="none"/>

  <!-- ── Body fill then outline ── -->
  <ellipse cx="20" cy="30" rx="12.5" ry="10" fill="rgba(255,255,255,0.11)"/>
  <ellipse cx="20" cy="30" rx="12.5" ry="10" fill="none" stroke="rgba(0,0,0,0.09)" stroke-width="2.5"/>
  <ellipse cx="20" cy="30" rx="12.5" ry="10" fill="none" stroke="rgba(255,255,255,0.74)" stroke-width="1.1"/>

  <!-- ── Hind leg ── -->
  <path d="M24 38 Q22 47 20 56 L28 56 Q27 47 27 38 Z" fill="rgba(255,255,255,0.10)"/>
  <path d="M24 38 Q22 47 20 56 L28 56 Q27 47 27 38 Z" fill="none" stroke="rgba(0,0,0,0.08)" stroke-width="2"/>
  <path d="M24 38 Q22 47 20 56 L28 56 Q27 47 27 38 Z" fill="none" stroke="rgba(255,255,255,0.70)" stroke-width="0.9"/>

  <!-- ── Neck (shadow then fill) ── -->
  <path d="M26 22 Q30 18 32 15" stroke="rgba(0,0,0,0.08)" stroke-width="9" stroke-linecap="round" fill="none"/>
  <path d="M26 22 Q30 18 32 15" stroke="rgba(255,255,255,0.76)" stroke-width="6.5" stroke-linecap="round" fill="none"/>

  <!-- ── Head fill then outline ── -->
  <ellipse cx="34" cy="13" rx="7" ry="5.5" fill="rgba(255,255,255,0.11)"/>
  <ellipse cx="34" cy="13" rx="7" ry="5.5" fill="none" stroke="rgba(0,0,0,0.09)" stroke-width="2.5"/>
  <ellipse cx="34" cy="13" rx="7" ry="5.5" fill="none" stroke="rgba(255,255,255,0.74)" stroke-width="1.1"/>

  <!-- ── Snout ── -->
  <path d="M39 15 Q44 15 44 18" stroke="rgba(0,0,0,0.08)" stroke-width="6" stroke-linecap="round" fill="none"/>
  <path d="M39 15 Q44 15 44 18" stroke="rgba(255,255,255,0.74)" stroke-width="4" stroke-linecap="round" fill="none"/>

  <!-- ── Ears ── -->
  <path d="M29 9 L27 3 L33 7 Z" fill="rgba(255,255,255,0.14)"/>
  <path d="M29 9 L27 3 L33 7 Z" fill="none" stroke="rgba(0,0,0,0.07)" stroke-width="1.8"/>
  <path d="M29 9 L27 3 L33 7 Z" fill="none" stroke="rgba(255,255,255,0.70)" stroke-width="0.9"/>

  <path d="M35 7 L36 1 L40 5 Z" fill="rgba(255,255,255,0.14)"/>
  <path d="M35 7 L36 1 L40 5 Z" fill="none" stroke="rgba(0,0,0,0.07)" stroke-width="1.8"/>
  <path d="M35 7 L36 1 L40 5 Z" fill="none" stroke="rgba(255,255,255,0.70)" stroke-width="0.9"/>

  <!-- ── Front arm ── -->
  <path d="M23 25 Q28 27 26 34" stroke="rgba(0,0,0,0.07)" stroke-width="4" stroke-linecap="round" fill="none"/>
  <path d="M23 25 Q28 27 26 34" stroke="rgba(255,255,255,0.65)" stroke-width="2.5" stroke-linecap="round" fill="none"/>

  <!-- ── Joey (tiny ears peeking from pouch) ── -->
  <circle cx="17" cy="29" r="3.5" fill="rgba(255,255,255,0.09)" stroke="rgba(255,255,255,0.52)" stroke-width="0.7"/>
  <path d="M15.5 27 L15 25 L17 26.5 Z" fill="rgba(255,255,255,0.55)" stroke="rgba(255,255,255,0.40)" stroke-width="0.5"/>
  <path d="M18.5 27 L19 25 L17.5 26.5 Z" fill="rgba(255,255,255,0.55)" stroke="rgba(255,255,255,0.40)" stroke-width="0.5"/>

  <!-- ── Specular highlights ── -->
  <path d="M13 23 Q19 20 25 22" fill="none" stroke="rgba(255,255,255,0.68)" stroke-width="1.4" stroke-linecap="round"/>
  <path d="M29 9 Q33 8 37 10" fill="none" stroke="rgba(255,255,255,0.62)" stroke-width="1.1" stroke-linecap="round"/>

</svg>
