<svg xmlns="http://www.w3.org/2000/svg" viewBox="0 0 96 79" fill="none" aria-hidden="true">
  <g transform="translate(-1 1)">
    <ellipse cx="29.331" cy="14.7048" rx="28.0215" ry="9.7695" transform="rotate(-10.4823 29.331 14.7048)" fill="#C381AD"/>
    <path d="M39.3628 48.6987C13.2868 54.9035 4.18382 33.0563 2.8918 21.3571C27.7345 31.8957 49.4445 19.0502 57.1942 11.3101C59.7943 37.1963 46.39 47.0217 39.3628 48.6987Z" fill="#FFC8ED"/>
    <ellipse cx="63.2967" cy="21.0015" rx="9.828" ry="11.7585" fill="#FFC8ED"/>
    <path d="M8.38506 23.0101C16.9001 19.5001 37.3621 13.2211 51.0901 16.1851C44.8501 21.0602 27.5731 29.2502 8.38506 23.0101Z" fill="#A1B71A" stroke="#A1B71A" stroke-width="0.39"/>
    <path d="M57.7127 20.3995C57.8973 18.6353 59.6826 12.1992 64.4275 13.9027C67.3484 14.2084 70.1639 19.2839 69.9793 21.0481C69.7946 22.8122 67.7666 28.0266 62.9587 27.9363C55.8641 27.803 57.528 22.1636 57.7127 20.3995Z" fill="#C381AD"/>
  </g>
  <g transform="translate(22.1 24.7)">
    <g transform="translate(36.5624 27.1953) rotate(180) scale(1 -1) translate(-36.5624 -27.1953)">
      <ellipse cx="29.331" cy="14.7046" rx="28.0215" ry="9.7695" transform="rotate(-10.4823 29.331 14.7046)" fill="#5CA8D8"/>
      <path d="M39.3628 48.6985C13.2868 54.9033 4.18382 33.0561 2.8918 21.3569C27.7345 31.8955 49.4445 19.05 57.1942 11.3099C59.7943 37.1961 46.39 47.0215 39.3628 48.6985Z" fill="#C7E5F8"/>
      <ellipse cx="63.2967" cy="21.0013" rx="9.828" ry="11.7585" fill="#C7E5F8"/>
      <path d="M8.38506 23.01C16.9001 19.5 37.3621 13.221 51.0901 16.185C44.8501 21.06 27.5731 29.25 8.38506 23.01Z" fill="#A1B71A" stroke="#A1B71A" stroke-width="0.39"/>
      <path d="M57.7127 20.3993C57.8973 18.6352 59.6826 12.199 64.4275 13.9025C67.3484 14.2083 70.1639 19.2838 69.9793 21.0479C69.7946 22.812 67.7666 28.0264 62.9587 27.9361C55.8641 27.8028 57.528 22.1634 57.7127 20.3993Z" fill="#5CA8D8"/>
    </g>
  </g>
</svg>
