<svg preserveAspectRatio="none" width="100%" height="100%" overflow="visible" style="display: block;" viewBox="0 0 1728 1117" fill="none" xmlns="http://www.w3.org/2000/svg">
<g id="cups collide">
<rect width="1728" height="1117" fill="#FCE9F5"/>
<ellipse id="Ellipse 41" cx="600.515" cy="452.342" rx="241.352" ry="83.5" transform="rotate(-10.4823 600.515 452.342)" fill="#C381AD"/>
<path id="Vector 134" d="M684.43 742.925C461.559 795.957 380.043 608.493 369 508.5C581.331 598.573 770.599 489.519 836.836 423.364C859.059 644.614 744.492 728.592 684.43 742.925Z" fill="#FFC8ED"/>
<ellipse id="Ellipse 42" cx="889" cy="506.5" rx="84" ry="100.5" fill="#FFC8ED"/>
<path id="Ellipse 43" d="M934.703 504.749C934.703 519.909 925.253 576.208 883.403 565.949C858.301 565.949 829.853 525.309 829.853 510.149C829.853 494.988 842.453 448.858 883.403 445.349C943.83 440.17 934.703 489.588 934.703 504.749Z" fill="#FCE9F5"/>
<path id="Ellipse 43_2" d="M1536.28 452.311C1515.93 493.694 1403.21 479.922 1284.52 421.55C1165.82 363.179 1086.1 282.312 1106.45 240.93C1126.8 199.547 1239.52 213.319 1358.22 271.691C1476.91 330.062 1556.64 410.929 1536.28 452.311Z" fill="#5CA8D8"/>
<path id="Vector 135" d="M1216.8 632.625C1006.37 542.065 1053.64 346.798 1104.5 259.999C1226.5 452.499 1431.36 479.507 1524 466C1409.7 656.735 1273.54 656.997 1216.8 632.625Z" fill="#C7E5F8"/>
<ellipse id="Ellipse 44" cx="84" cy="100.5" rx="84" ry="100.5" transform="matrix(-1 0 0 1 1082 259)" fill="#C7E5F8"/>
<path id="Ellipse 45" d="M952.297 357.749C952.297 372.909 961.747 429.208 1003.6 418.949C1028.7 418.949 1057.15 378.309 1057.15 363.149C1057.15 347.988 1044.55 301.858 1003.6 298.349C943.17 293.17 952.297 342.588 952.297 357.749Z" fill="#FCE9F5"/>
<path id="Vector 138" d="M1107 260C1155.55 357.721 1328.44 526.687 1530 462.5C1439.03 439.804 1251.63 321.138 1107 260Z" fill="#A1B71A" stroke="#A1B71A"/>
<path id="Vector 139" d="M367 507.113C473.403 565.519 711.516 607.223 836 424C744.935 459.885 528.7 472.758 367 507.113Z" fill="#A1B71A" stroke="#A1B71A"/>
</g>
</svg>
