<svg preserveAspectRatio="none" width="100%" height="100%" overflow="visible" style="display: block;" viewBox="0 0 1728 1117" fill="none" xmlns="http://www.w3.org/2000/svg">
<g id="cups disappear" clip-path="url(#clip0_0_4)">
<rect width="1728" height="1117" fill="#FCE9F5"/>
<ellipse id="Ellipse 37" cx="475.418" cy="1362.86" rx="237.009" ry="83.5" transform="rotate(-57.5362 475.418 1362.86)" fill="var(--fill-0, #C381AD)"/>
<path id="Vector 134" d="M743.953 1499.02C630.928 1698.29 441.236 1628.02 360.518 1567.98C571.114 1473.92 617.169 1263.3 613.872 1169.74C790.966 1304.21 774.382 1445.29 743.953 1499.02Z" fill="var(--fill-0, #FFC8ED)"/>
<ellipse id="Ellipse 38" cx="1172.85" cy="1312.6" rx="239.5" ry="83.5" transform="rotate(42.1366 1172.85 1312.6)" fill="var(--fill-0, #5CA8D8)"/>
<path id="Vector 135" d="M994.263 1556.94C816.814 1412.04 917.956 1236.85 990.707 1167.37C1048.04 1390.78 1247.94 1471.56 1340.72 1484.03C1178.4 1636.02 1042.12 1595.96 994.263 1556.94Z" fill="var(--fill-0, #C7E5F8)"/>
<ellipse id="Ellipse 41" cx="735.701" cy="1211.24" rx="84" ry="100.5" transform="rotate(-62.1325 735.701 1211.24)" fill="var(--fill-0, #FFC8ED)"/>
<path id="Ellipse 42" d="M755.516 1170.02C768.918 1177.1 814.271 1211.77 785.64 1243.97C773.907 1266.16 724.682 1272.32 711.28 1265.23C697.878 1258.14 662.987 1225.44 679.026 1187.6C702.693 1131.76 742.114 1162.93 755.516 1170.02Z" fill="var(--fill-0, #FCE9F5)"/>
<ellipse id="Ellipse 43" cx="84" cy="100.5" rx="84" ry="100.5" transform="matrix(-0.961503 -0.274795 -0.274795 0.961503 984.766 1176.04)" fill="var(--fill-0, #C7E5F8)"/>
<path id="Ellipse 44" d="M832.92 1235.34C828.754 1249.92 822.369 1306.65 865.427 1308.29C889.562 1315.18 928.083 1283.93 932.249 1269.35C936.415 1254.77 936.977 1206.96 898.568 1192.33C841.89 1170.74 837.086 1220.77 832.92 1235.34Z" fill="var(--fill-0, #FCE9F5)"/>
<path id="Ellipse 45" d="M572.462 1266.86C605.145 1297.65 580.708 1376.68 517.881 1443.37C455.054 1510.07 345.074 1708.41 312.392 1677.62C279.709 1646.83 336.7 1398.58 399.527 1331.88C462.354 1265.19 539.78 1236.08 572.462 1266.86Z" fill="var(--fill-0, #A1B71A)"/>
<path id="Ellipse 46" d="M1395.5 1628.34C1377.46 1674.39 1337.12 1514.75 1250.78 1471.41C1164.43 1428.06 1005.19 1313.58 1019.37 1233.75C1037.41 1187.7 1089.86 1182.65 1226.5 1270.34C1312.84 1313.69 1413.54 1582.29 1395.5 1628.34Z" fill="var(--fill-0, #A1B71A)"/>
</g>
<defs>
<clipPath id="clip0_0_4">
<rect width="1728" height="1117" fill="white"/>
</clipPath>
</defs>
</svg>
