<svg preserveAspectRatio="none" width="100%" height="100%" overflow="visible" style="display: block;" viewBox="0 0 393 852" fill="none" xmlns="http://www.w3.org/2000/svg">
<g id="iPhone 16 - 1" clip-path="url(#clip0_0_4)">
<rect width="393" height="852" fill="#FCE9F5"/>
<path id="Ellipse 43" d="M-26.7346 529.072C-19.4083 543.97 21.3572 540.794 64.0877 519.78C106.818 498.766 135.333 467.872 128.006 452.975C120.68 438.077 80.1009 443.035 37.3704 464.049C-5.36009 485.062 -34.0609 514.174 -26.7346 529.072Z" fill="#C381AD"/>
<path id="Vector 138" d="M69.1278 516.9C123.992 486.228 134.467 480.063 131.227 471.603C107.107 466.32 12.9669 516.9 -10.6131 535.323C-32.6451 569.739 32.2877 531.24 69.1278 516.9Z" fill="#A1B71A" stroke="#A1B71A" strokeWidth="0.36"/>
<path id="Vector 139" d="M90.7092 595.189C166.466 562.587 147.809 490.37 129.5 459.122C87.5532 530.78 11.348 540.542 -22.0007 535.679C19.1484 604.344 70.2847 603.962 90.7092 595.189Z" fill="#FFC8ED"/>
<ellipse id="Ellipse 44" cx="167.047" cy="495.659" rx="30.24" ry="36.18" fill="#FFC8ED"/>
<path id="Ellipse 45" d="M183.501 495.03C183.501 500.488 180.099 520.755 165.033 517.062C155.996 517.062 145.755 502.432 145.755 496.974C145.755 491.516 150.291 474.909 165.033 473.646C186.786 471.782 183.501 489.572 183.501 495.03Z" fill="#FCE9F5"/>
</g>
<defs>
<clipPath id="clip0_0_4">
<rect width="393" height="852" fill="white"/>
</clipPath>
</defs>
</svg>
