<svg preserveAspectRatio="none" width="100%" height="100%" overflow="visible" style="display: block;" viewBox="0 0 393 852" fill="none" xmlns="http://www.w3.org/2000/svg">
<g id="iPhone 16 - 4" clip-path="url(#clip0_0_4)">
<rect width="393" height="852" fill="#FCE9F5"/>
<path id="Ellipse 46" d="M3.2658 458.072C10.5921 472.97 51.3576 469.794 94.0881 448.78C136.819 427.766 165.333 396.872 158.007 381.975C150.68 367.077 110.101 372.035 67.3708 393.049C24.6403 414.062 -4.06049 443.174 3.2658 458.072Z" fill="#C381AD"/>
<path id="Vector 141" d="M120.709 524.189C196.466 491.587 177.809 419.37 159.5 388.122C117.553 459.78 41.348 469.542 7.99933 464.679C49.1484 533.344 100.285 532.962 120.709 524.189Z" fill="#FFC8ED"/>
<ellipse id="Ellipse 47" cx="197.048" cy="424.659" rx="30.24" ry="36.18" fill="#FFC8ED"/>
<path id="Ellipse 48" d="M213.501 424.03C213.501 429.488 210.099 449.755 195.033 446.062C185.996 446.062 175.755 431.432 175.755 425.974C175.755 420.516 180.291 403.909 195.033 402.646C216.787 400.782 213.501 418.572 213.501 424.03Z" fill="#FCE9F5"/>
<path id="Ellipse 46_2" d="M408.022 402.072C400.696 416.97 359.931 413.794 317.2 392.78C274.469 371.766 245.955 340.872 253.281 325.975C260.608 311.077 301.187 316.035 343.917 337.049C386.648 358.062 415.349 387.174 408.022 402.072Z" fill="#5CA8D8"/>
<path id="Vector 141_2" d="M290.577 467.184C214.82 434.583 233.69 360.366 251.999 329.118C293.946 400.776 369.938 412.537 403.287 407.675C362.138 476.339 311.001 475.958 290.577 467.184Z" fill="#C7E5F8"/>
<ellipse id="Ellipse 47_2" cx="30.24" cy="36.18" rx="30.24" ry="36.18" transform="matrix(-1 0 0 1 244.48 332.098)" fill="#C7E5F8"/>
<path id="Ellipse 48_2" d="M197.787 368.03C197.787 373.488 201.189 393.755 216.255 390.062C225.292 390.062 235.533 375.432 235.533 369.974C235.533 364.516 230.997 347.909 216.255 346.646C194.501 344.782 197.787 362.572 197.787 368.03Z" fill="#FCE9F5"/>
<path id="Vector 140" d="M99.1283 445.9C153.992 415.228 141.24 407.46 138 399C86.7727 367.397 23.5002 445.9 19.3875 464.324C-35.0002 571 -19.0002 542.5 99.1283 445.9Z" fill="#A1B71A" stroke="#A1B71A" strokeWidth="0.36"/>
<path id="Ellipse 47_3" d="M390.539 447.066C386.793 464.41 367.795 411.555 339.201 402.526C310.606 393.497 256.473 364.798 257.651 335.938C261.397 318.594 277.498 313.129 323.52 334.078C352.114 343.106 394.284 429.723 390.539 447.066Z" fill="#A1B71A"/>
</g>
<defs>
<clipPath id="clip0_0_4">
<rect width="393" height="852" fill="white"/>
</clipPath>
</defs>
</svg>
