<svg preserveAspectRatio="none" width="100%" height="100%" overflow="visible" style="display: block;" viewBox="0 0 393 852" fill="none" xmlns="http://www.w3.org/2000/svg">
<g id="iPhone 16 - 5" clip-path="url(#clip0_0_4)">
<rect width="393" height="852" fill="#FCE9F5"/>
<path id="Ellipse 46" d="M11.7707 811.072C19.097 825.97 59.8625 822.794 102.593 801.78C145.323 780.766 173.838 749.872 166.512 734.975C159.185 720.077 118.606 725.035 75.8757 746.049C33.1452 767.062 4.4444 796.174 11.7707 811.072Z" fill="#C381AD"/>
<path id="Vector 141" d="M129.214 877.189C204.971 844.587 186.314 772.37 168.005 741.122C126.058 812.78 49.8529 822.542 16.5042 817.679C57.6533 886.344 108.79 885.962 129.214 877.189Z" fill="#FFC8ED"/>
<ellipse id="Ellipse 47" cx="205.553" cy="777.659" rx="30.24" ry="36.18" fill="#FFC8ED"/>
<path id="Ellipse 48" d="M222.006 777.03C222.006 782.488 218.604 802.755 203.538 799.062C194.501 799.062 184.26 784.432 184.26 778.974C184.26 773.516 188.796 756.909 203.538 755.646C225.292 753.782 222.006 771.572 222.006 777.03Z" fill="#FCE9F5"/>
<path id="Ellipse 46_2" d="M405.022 710.072C397.696 724.97 356.93 721.794 314.2 700.78C271.469 679.766 242.955 648.872 250.281 633.975C257.607 619.077 298.186 624.035 340.917 645.049C383.647 666.062 412.348 695.174 405.022 710.072Z" fill="#5CA8D8"/>
<path id="Vector 141_2" d="M287.576 775.184C211.82 742.583 230.69 668.366 248.999 637.118C290.945 708.776 366.937 720.537 400.286 715.675C359.137 784.339 308.001 783.958 287.576 775.184Z" fill="#C7E5F8"/>
<ellipse id="Ellipse 47_2" cx="30.24" cy="36.18" rx="30.24" ry="36.18" transform="matrix(-1 0 0 1 241.48 640.098)" fill="#C7E5F8"/>
<path id="Ellipse 48_2" d="M194.787 676.03C194.787 681.488 198.189 701.755 213.255 698.062C222.291 698.062 232.533 683.432 232.533 677.974C232.533 672.516 227.997 655.909 213.255 654.646C191.501 652.782 194.787 670.572 194.787 676.03Z" fill="#FCE9F5"/>
<path id="Vector 140" d="M107.633 798.9C162.497 768.228 149.745 760.46 146.505 752C95.2778 720.397 32.0052 798.9 27.8925 817.324C-26.4951 924 -10.4951 895.5 107.633 798.9Z" fill="#A1B71A" stroke="#A1B71A" strokeWidth="0.36"/>
<path id="Ellipse 47_3" d="M387.538 755.066C383.793 772.409 364.795 719.554 336.201 710.526C307.606 701.497 253.472 672.797 254.651 643.937C258.396 626.594 274.497 621.128 320.519 642.077C349.114 651.106 391.284 737.723 387.538 755.066Z" fill="#A1B71A"/>
</g>
<defs>
<clipPath id="clip0_0_4">
<rect width="393" height="852" fill="white"/>
</clipPath>
</defs>
</svg>
