<svg preserveAspectRatio="none" width="100%" height="100%" overflow="visible" style="display: block;" viewBox="0 0 1728 1117" fill="none" xmlns="http://www.w3.org/2000/svg">
<g id="cups spill">
<rect width="1728" height="1117" fill="#FCE9F5"/>
<ellipse id="Ellipse 37" cx="548.527" cy="533.739" rx="237.009" ry="83.5" transform="rotate(-57.5362 548.527 533.739)" fill="var(--fill-0, #C381AD)"/>
<path id="Vector 134" d="M817.061 669.9C704.036 869.172 514.344 798.904 433.626 738.861C644.222 644.805 690.277 434.177 686.98 340.62C864.074 475.092 847.49 616.17 817.061 669.9Z" fill="var(--fill-0, #FFC8ED)"/>
<ellipse id="Ellipse 38" cx="1268.85" cy="356.263" rx="239.5" ry="83.5" transform="rotate(42.1366 1268.85 356.263)" fill="var(--fill-0, #5CA8D8)"/>
<path id="Vector 135" d="M1090.26 600.603C912.815 455.704 1011.25 279.982 1084 210.5C1141.34 433.906 1343.94 515.228 1436.72 527.697C1274.4 679.68 1138.12 639.627 1090.26 600.603Z" fill="var(--fill-0, #C7E5F8)"/>
<ellipse id="Ellipse 41" cx="808.809" cy="382.115" rx="84" ry="100.5" transform="rotate(-62.1325 808.809 382.115)" fill="var(--fill-0, #FFC8ED)"/>
<path id="Ellipse 42" d="M828.624 340.895C842.026 347.981 887.379 382.651 858.747 414.852C847.014 437.042 797.79 443.196 784.387 436.109C770.985 429.023 736.094 396.322 752.133 358.48C775.8 302.64 815.222 333.808 828.624 340.895Z" fill="var(--fill-0, #FCE9F5)"/>
<ellipse id="Ellipse 43" cx="84" cy="100.5" rx="84" ry="100.5" transform="matrix(-0.961503 -0.274795 -0.274795 0.961503 1080.77 219.702)" fill="var(--fill-0, #C7E5F8)"/>
<path id="Ellipse 44" d="M928.92 279.007C924.755 293.584 918.37 350.313 961.428 351.948C985.563 358.846 1024.08 327.588 1028.25 313.012C1032.42 298.435 1032.98 250.618 994.568 235.991C937.891 214.406 933.086 264.431 928.92 279.007Z" fill="var(--fill-0, #FCE9F5)"/>
<path id="Ellipse 45" d="M645.571 437.744C678.254 468.531 653.817 547.556 590.99 614.252C528.163 680.948 418.183 879.287 385.5 848.5C352.818 817.713 409.809 569.46 472.636 502.764C535.463 436.068 612.889 406.958 645.571 437.744Z" fill="var(--fill-0, #A1B71A)"/>
<path id="Ellipse 46" d="M1491.5 672C1473.46 718.05 1433.12 558.418 1346.78 515.069C1260.43 471.72 1101.19 357.245 1115.37 277.41C1133.41 231.36 1185.87 226.313 1322.5 314C1408.84 357.349 1509.54 625.95 1491.5 672Z" fill="var(--fill-0, #A1B71A)"/>
</g>
</svg>
