<svg preserveAspectRatio="none" width="100%" height="100%" overflow="visible" style="display: block;" viewBox="0 0 1728 1117" fill="none" xmlns="http://www.w3.org/2000/svg">
<g id="cups fall" clip-path="url(#clip0_0_4)">
<rect width="1728" height="1117" fill="#FCE9F5"/>
<ellipse id="Ellipse 37" cx="475.418" cy="999.859" rx="237.009" ry="83.5" transform="rotate(-57.5362 475.418 999.859)" fill="var(--fill-0, #C381AD)"/>
<path id="Vector 134" d="M743.952 1136.02C630.927 1335.29 441.235 1265.02 360.517 1204.98C571.113 1110.92 617.168 900.297 613.871 806.741C790.965 941.213 774.381 1082.29 743.952 1136.02Z" fill="var(--fill-0, #FFC8ED)"/>
<ellipse id="Ellipse 38" cx="1172.85" cy="732.6" rx="239.5" ry="83.5" transform="rotate(42.1366 1172.85 732.6)" fill="var(--fill-0, #5CA8D8)"/>
<path id="Vector 135" d="M994.264 976.94C816.815 832.04 915.248 657.482 988 588C1045.33 811.406 1247.94 891.565 1340.72 904.034C1178.4 1056.02 1042.12 1015.96 994.264 976.94Z" fill="var(--fill-0, #C7E5F8)"/>
<ellipse id="Ellipse 41" cx="735.701" cy="848.235" rx="84" ry="100.5" transform="rotate(-62.1325 735.701 848.235)" fill="var(--fill-0, #FFC8ED)"/>
<path id="Ellipse 42" d="M755.515 807.015C768.917 814.101 814.27 848.771 785.639 880.972C773.906 903.163 724.681 909.316 711.279 902.23C697.877 895.143 662.986 862.442 679.025 824.6C702.692 768.76 742.113 799.928 755.515 807.015Z" fill="var(--fill-0, #FCE9F5)"/>
<ellipse id="Ellipse 43" cx="84" cy="100.5" rx="84" ry="100.5" transform="matrix(-0.961503 -0.274795 -0.274795 0.961503 984.766 596.039)" fill="var(--fill-0, #C7E5F8)"/>
<path id="Ellipse 44" d="M832.92 655.344C828.754 669.921 822.37 726.649 865.428 728.285C889.563 735.183 928.084 703.925 932.25 689.348C936.416 674.772 936.977 626.955 898.568 612.328C841.891 590.743 837.086 640.767 832.92 655.344Z" fill="var(--fill-0, #FCE9F5)"/>
<path id="Ellipse 45" d="M572.462 903.864C605.145 934.651 580.708 1013.68 517.881 1080.37C455.054 1147.07 345.074 1345.41 312.392 1314.62C279.709 1283.83 336.7 1035.58 399.527 968.884C462.354 902.188 539.78 873.078 572.462 903.864Z" fill="var(--fill-0, #A1B71A)"/>
<path id="Ellipse 46" d="M1395.5 1048.34C1377.46 1094.39 1337.12 934.755 1250.78 891.406C1164.43 848.057 1005.19 733.582 1019.37 653.747C1037.41 607.697 1089.86 602.65 1226.5 690.337C1312.84 733.686 1413.54 1002.29 1395.5 1048.34Z" fill="var(--fill-0, #A1B71A)"/>
</g>
<defs>
<clipPath id="clip0_0_4">
<rect width="1728" height="1117" fill="white"/>
</clipPath>
</defs>
</svg>
