<svg viewBox="0 0 400 272" fill="none" xmlns="http://www.w3.org/2000/svg">
  <path fill="#037DF6" fill-rule="evenodd" d="M 269.88 237.79 C 254.86 223.71 218.43 155.95 202.43 123.83 C 191.31 148.92 160.95 200.06 146.81 222.49 C 113.43 269.61 73.10 259.97 57.11 249.26 C 23.73 230.29 24.43 152.13 34.16 114.65 C 38.83 96.69 51.55 55.75 69.63 35.87 C 94.66 3.74 116.68 3.74 131.51 3.74 C 167.67 0.69 206.61 55.75 206.61 55.75 C 206.61 55.75 229.32 29.24 241.37 16.74 C 265.01 -1.61 287.03 3.74 299.08 6.80 C 325.51 16.74 348.92 54.22 358.19 74.87 C 365.84 88.64 371.40 117.71 372.09 120.77 C 372.79 123.83 376.27 185.78 374.18 199.55 C 372.90 207.97 369.54 218.92 367.92 221.73 C 364.58 229.07 360.04 236.00 358.19 238.55 C 337.33 260.74 318.32 259.72 308.82 258.44 C 293.80 258.44 276.60 244.67 269.88 237.79 Z M 266.66 157.98 C 263.36 153.13 236.90 106.92 224.09 84.42 C 260.34 12.82 298.70 38.91 313.35 60.91 C 334.22 84.57 340.82 143.57 341.50 170.12 C 340.95 208.34 328.00 216.38 321.59 215.62 C 295.50 219.41 270.78 164.05 266.66 157.98 Z M 140.98 167.69 C 144.28 162.84 170.74 116.65 183.55 94.16 C 147.30 22.60 108.02 44.45 92.92 70.06 C 72.04 93.71 66.82 153.29 66.14 179.82 C 70.26 212.58 83.76 215.61 90.17 214.85 C 116.26 218.64 136.86 173.76 140.98 167.69 Z"/>
</svg>
