<svg preserveAspectRatio="none" width="100%" height="100%" overflow="visible" style="display: block;" viewBox="0 0 317.654 218.91" fill="none" xmlns="http://www.w3.org/2000/svg">
<g id="Frame 1321314328">
<path id="Vector 144" d="M253.53 212.301C207.53 199.501 173.697 133.134 161.03 101.801C154.63 117.401 126.696 160.967 113.53 180.801C49.0298 255.301 18.5298 200.467 9.02983 174.801C-15.7702 114.801 19.3632 51.8002 40.0298 27.8C89.6298 -28.6 144.363 15.3004 165.53 44.3007C202.73 -13.6993 247.363 -0.865999 265.03 12.8007C296.03 34.8008 312.196 97.634 317.03 134.801C319.83 196.001 274.53 218.144 253.53 212.301Z" fill="var(--fill-0, #037DF6)" stroke="var(--stroke-0, #037DF6)"/>
<path id="Vector 145" d="M251.53 174.3C240.33 167.9 197.696 99.9675 178.53 67.3008C191.73 34.9008 216.03 25.7997 233.53 29.3157C261.13 31.3157 280.03 78.1329 285.03 100.8C299.43 175.2 267.863 180.8 251.53 174.3Z" fill="var(--fill-0, white)" stroke="var(--stroke-0, #D9D9D9)"/>
<path id="Vector 146" d="M72.6953 184.649C83.8953 178.249 125.529 107.316 144.695 74.6496C131.495 42.2496 106.03 32.7847 88.5298 36.3007C60.9298 38.3007 43.5298 81.6341 38.5298 104.301C24.1298 178.701 56.362 191.149 72.6953 184.649Z" fill="var(--fill-0, white)" stroke="var(--stroke-0, #D9D9D9)"/>
</g>
</svg>
